<mxfile host="app.diagrams.net" modified="2024-05-01T18:42:42.268Z" agent="Mozilla/5.0 (Macintosh; Intel Mac OS X 10_15_7) AppleWebKit/537.36 (KHTML, like Gecko) Chrome/124.0.0.0 Safari/537.36" version="24.3.1" etag="o8ZE1nEW266UcdB723H-" type="github">
  <diagram name="Page-1" id="biGg5Fjz65Ht4ff07B7g">
    <mxGraphModel>
      <root>
        <mxCell id="0" />
        <mxCell id="1" parent="0" />
      </root>
    </mxGraphModel>
  </diagram>
</mxfile>
